<svg id="Layer_1" data-name="Layer 1" xmlns="http://www.w3.org/2000/svg" viewBox="0 0 495 313"><defs><style>.cls-1{fill:#302e41;}.cls-2{fill:#f8b4b6;}.cls-3{fill:#e6e6e5;}.cls-4{fill:#f3f3f3;}.cls-5{fill:#403e56;}.cls-6{fill:#fff;}.cls-7{fill:#51c6dc;}.cls-8{fill:#019bb3;}.cls-9{fill:#ccc;}</style></defs><title>CoursalPhoto</title><g id="Coursal"><path class="cls-1" d="M204.6,57.28a2.64,2.64,0,0,1-3,.87l-.47-.17a19.59,19.59,0,0,0-.25-5.51A14.5,14.5,0,0,1,199.77,57a6.13,6.13,0,0,1-1.21-1.73,15.13,15.13,0,0,1-1.11-4.17c-.83-4.89-1.65-10-.29-14.75,2-7,8.24-12,10.86-18.76l1.29-1.16c2.2,3.76,2.3,8.42,1.4,12.68s-2.7,8.27-4.12,12.38-2.49,8.49-1.83,12.8A4.42,4.42,0,0,1,204.6,57.28Z" transform="translate(-17 -8)"/><polygon class="cls-2" points="158.96 108.32 150.56 146.71 187.24 158.65 181.85 108.32 158.96 108.32"/><path class="cls-3" d="M434.77,320.06h16.62V243.89a74.24,74.24,0,0,0-74.17-74.14H222.76a74.23,74.23,0,0,0-74.16,74.14v76.17h16.62V268a74.94,74.94,0,0,1,74.85-74.83H359.91A74.94,74.94,0,0,1,434.77,268Z" transform="translate(-17 -8)"/><path class="cls-4" d="M232.81,280.21l-17.71-5.36a61.16,61.16,0,0,1-1.73-14.45,5.81,5.81,0,0,1,3.37-5.22,5.78,5.78,0,0,1,6.16.84c9.5,8.14,23.41,12.49,32.39,21.77a35.85,35.85,0,0,1,9.58,29.61l3.88,12.54a60.26,60.26,0,0,1-44.13-24.33,58.44,58.44,0,0,1-7-12.8C225.15,282,232.81,280.21,232.81,280.21Z" transform="translate(-17 -8)"/><path class="cls-4" d="M279,300.74l9-2.73,0-.15a5.75,5.75,0,0,0-2.24-6,5.72,5.72,0,0,0-3.14-1.11,5.85,5.85,0,0,0-3.22.8c-4.11,2.44-8.66,4.53-11.93,7.91a18.39,18.39,0,0,0-4.89,15.11l-2,6.39a30.72,30.72,0,0,0,22.5-12.41,29.14,29.14,0,0,0,3.56-6.53C282.88,301.63,279,300.74,279,300.74Z" transform="translate(-17 -8)"/><path class="cls-5" d="M334.63,145.15a4.19,4.19,0,0,1-2.93-1.23,4.12,4.12,0,0,1-1.22-2.93v-6.4a4.16,4.16,0,0,1,8.31,0V141a4.18,4.18,0,0,1-4.16,4.16Zm17.48-31.57H316.93a1.88,1.88,0,0,0-1.88,1.88V171H354V115.46a1.78,1.78,0,0,0-.14-.72,1.69,1.69,0,0,0-.41-.61,2,2,0,0,0-.61-.41A1.91,1.91,0,0,0,352.11,113.58Z" transform="translate(-17 -8)"/><path class="cls-5" d="M410.36,26.88H260a4.88,4.88,0,0,0-4.88,4.87V133.2a4.88,4.88,0,0,0,4.88,4.87H410.36a4.92,4.92,0,0,0,3.45-1.43,4.87,4.87,0,0,0,1.42-3.44V31.75a4.88,4.88,0,0,0-4.87-4.87Z" transform="translate(-17 -8)"/><path class="cls-6" d="M409.11,30.4H261.24A2.61,2.61,0,0,0,258.63,33v98.93a2.59,2.59,0,0,0,2.61,2.6H409.11a2.59,2.59,0,0,0,2.6-2.6V33a2.61,2.61,0,0,0-2.6-2.61Z" transform="translate(-17 -8)"/><path class="cls-5" d="M314.93,169.24v5.36a1,1,0,0,0,1.05,1h37.08a1.09,1.09,0,0,0,.74-.3,1.15,1.15,0,0,0,.31-.74v-5.36Z" transform="translate(-17 -8)"/><path class="cls-5" d="M380.3,177.51h-88a1.71,1.71,0,0,1-.7-.16,1.5,1.5,0,0,1-.56-.44,1.59,1.59,0,0,1-.31-.64,1.55,1.55,0,0,1,0-.71l1.37-6.48a1.63,1.63,0,0,1,.56-.92,1.6,1.6,0,0,1,1-.37h85.25a1.6,1.6,0,0,1,1,.37,1.63,1.63,0,0,1,.56.92l1.37,6.48a1.7,1.7,0,0,1,0,.71,1.75,1.75,0,0,1-.32.64,1.5,1.5,0,0,1-.56.44A1.71,1.71,0,0,1,380.3,177.51Z" transform="translate(-17 -8)"/><rect class="cls-3" x="277.32" y="160.96" width="2.71" height="1.63" rx="0.34" ry="0.34"/><rect class="cls-3" x="282.74" y="160.96" width="2.71" height="1.63" rx="0.34" ry="0.34"/><rect class="cls-3" x="288.16" y="160.96" width="2.71" height="1.63" rx="0.34" ry="0.34"/><rect class="cls-3" x="293.57" y="160.96" width="2.71" height="1.63" rx="0.34" ry="0.34"/><rect class="cls-3" x="298.99" y="160.96" width="2.71" height="1.63" rx="0.34" ry="0.34"/><rect class="cls-3" x="304.41" y="160.96" width="2.71" height="1.63" rx="0.34" ry="0.34"/><rect class="cls-3" x="309.83" y="160.96" width="2.71" height="1.63" rx="0.34" ry="0.34"/><rect class="cls-3" x="315.25" y="160.96" width="2.71" height="1.63" rx="0.34" ry="0.34"/><rect class="cls-3" x="320.67" y="160.96" width="2.71" height="1.63" rx="0.34" ry="0.34"/><rect class="cls-3" x="326.09" y="160.96" width="2.71" height="1.63" rx="0.34" ry="0.34"/><rect class="cls-3" x="331.51" y="160.96" width="2.71" height="1.63" rx="0.34" ry="0.34"/><rect class="cls-3" x="336.93" y="160.96" width="2.71" height="1.63" rx="0.34" ry="0.34"/><rect class="cls-3" x="342.35" y="160.96" width="2.71" height="1.63" rx="0.34" ry="0.34"/><rect class="cls-3" x="347.77" y="160.96" width="2.71" height="1.63" rx="0.34" ry="0.34"/><rect class="cls-3" x="353.18" y="160.96" width="2.71" height="1.63" rx="0.34" ry="0.34"/><rect class="cls-3" x="358.6" y="160.96" width="2.71" height="1.63" rx="0.34" ry="0.34"/><rect class="cls-3" x="277.25" y="163.67" width="2.71" height="1.63" rx="0.34" ry="0.34"/><rect class="cls-3" x="282.67" y="163.67" width="2.71" height="1.63" rx="0.34" ry="0.34"/><rect class="cls-3" x="288.09" y="163.67" width="2.71" height="1.63" rx="0.34" ry="0.34"/><rect class="cls-3" x="293.51" y="163.67" width="2.71" height="1.63" rx="0.34" ry="0.34"/><rect class="cls-3" x="298.93" y="163.67" width="2.71" height="1.63" rx="0.34" ry="0.34"/><rect class="cls-3" x="304.35" y="163.67" width="2.71" height="1.63" rx="0.34" ry="0.34"/><rect class="cls-3" x="309.77" y="163.67" width="2.71" height="1.63" rx="0.34" ry="0.34"/><rect class="cls-3" x="315.19" y="163.67" width="2.71" height="1.63" rx="0.34" ry="0.34"/><rect class="cls-3" x="320.61" y="163.67" width="2.71" height="1.63" rx="0.34" ry="0.34"/><rect class="cls-3" x="326.03" y="163.67" width="2.71" height="1.63" rx="0.34" ry="0.34"/><rect class="cls-3" x="331.44" y="163.67" width="2.71" height="1.63" rx="0.34" ry="0.34"/><rect class="cls-3" x="336.86" y="163.67" width="2.71" height="1.63" rx="0.34" ry="0.34"/><rect class="cls-3" x="342.28" y="163.67" width="2.71" height="1.63" rx="0.34" ry="0.34"/><rect class="cls-3" x="347.7" y="163.67" width="2.71" height="1.63" rx="0.34" ry="0.34"/><rect class="cls-3" x="353.12" y="163.67" width="2.71" height="1.63" rx="0.34" ry="0.34"/><rect class="cls-3" x="358.54" y="163.67" width="2.71" height="1.63" rx="0.34" ry="0.34"/><rect class="cls-3" x="303.27" y="166.92" width="21.68" height="1.63" rx="0.34" ry="0.34"/><path class="cls-4" d="M387.06,55.23V107.3a13.16,13.16,0,0,1-13.16,13.15H308.71a13.15,13.15,0,0,1-12.08-7.92,12.89,12.89,0,0,1-.78-2.42,12,12,0,0,0,4.35.81h65.19A12.15,12.15,0,0,0,377.52,98.8V46.73a12,12,0,0,0-.81-4.35,12.89,12.89,0,0,1,2.42.78,13.15,13.15,0,0,1,7.93,12.07Z" transform="translate(-17 -8)"/><polygon class="cls-2" points="126.84 254.41 120.37 258.41 101.32 235 110.87 229.09 126.84 254.41"/><path class="cls-1" d="M149.42,270.76l-5.2,2.32-3.12-4.49-.19,6-13.79,6.15a3.4,3.4,0,0,1-2.11.22,3.33,3.33,0,0,1-1.82-1.07,3.4,3.4,0,0,1-.84-1.95,3.46,3.46,0,0,1,.48-2.06l7.62-12.52-2.21-5,11.89-4.48Z" transform="translate(-17 -8)"/><path class="cls-1" d="M125.73,257.9l10.92-10.58c-8.12-20-8.77-32.42-20-56.63,26.68,5.46,45.76,5.12,67.84.23,7.47-1.63,26.75-16.51,25.16-24.15-.07-.35-.16-.71-.26-1.06-2.37-8.07-.7-20.44-5.83-29.4-9.49-3.57-23.9,8.5-35.18,15.86-5.43,3.55-1.45,8.38-5.51,9.65l-15.57,5.05-38.19-6.16a14.14,14.14,0,0,0-16.13,12c-.06.41-.11.83-.14,1.25,1.76,9.72,3.59,19.19,5.57,28.18.63,2.9-.44,8.46,1.95,8.54s1.43,5.84,2.18,8.65C107.12,236.62,110,245,125.73,257.9Z" transform="translate(-17 -8)"/><polygon class="cls-2" points="87.82 296.31 81.09 292.79 91.75 264.57 101.69 269.75 87.82 296.31"/><path class="cls-1" d="M103.7,283.23l10.8,7.43c13.24-19.14,21.84-44.71,28.24-73.33,24.92-10.87,46.74-23.3,61.93-40a14.42,14.42,0,0,0-.83-20.06c-.27-.25-.54-.49-.82-.72-6.59-5.24-21.21-2.23-30.55-6.61l-16.7,23.1,1.92,5.38-5.81,2.83-4.9,2.38-5.61,2.73-18.4,9a14.12,14.12,0,0,0-6.27,19c.18.37.38.74.6,1.1l-6.83,34s1.88,5.93-1.08,5.37S108,261.6,108,261.6Z" transform="translate(-17 -8)"/><path class="cls-1" d="M100.74,319.86l-5-2.64L97.28,312l-4.8,3.56-13.39-7A3.45,3.45,0,0,1,77.61,307a3.4,3.4,0,0,1,.72-4,3.41,3.41,0,0,1,1.91-.9l14.55-1.8,2.52-4.82,10.9,6.54Z" transform="translate(-17 -8)"/><path class="cls-2" d="M248,171.89l-7.88-19-6.21,3.45,3.75,19.36a6.9,6.9,0,1,0,12.83-.94A7,7,0,0,0,248,171.89Z" transform="translate(-17 -8)"/><path class="cls-2" d="M115.78,21.38l12,16.76L133,33.37l-8-18a6.89,6.89,0,0,0-7-7.36,6.88,6.88,0,0,0-6.08,4,6.9,6.9,0,0,0,3.92,9.41Z" transform="translate(-17 -8)"/><path class="cls-7" d="M169.91,127.57c-7.77,12.06,20.71,38.33,35.71,32.18,2.63-1.07,11.66-4.62,5.48-9.55s.72.59.88-2.62c.11-2.14-1.55-6.85.18-6.64s2.73-4.81-1-6.09a7.32,7.32,0,0,1-4.83-6.2c-.36-13.22,4.12-27,4.12-27l18.27,46.7s-.13,8.08,2.2,5.61,2.16,5.52,2.16,5.52,3.47,2.42,1.47,3.76,2.15,5.49,2.15,5.49l9.65-.69s-.15-7.17-1.8-8.76-.83-4.08-.83-4.08-3.4-3.16-1.42-6.88S227.81,78,227.81,78a17.76,17.76,0,0,0-12.67-13.53l-10.43-2.87-1.85-7.35H188.18l-2.56,4.83L162.17,57S139,35.92,140.1,34.27s-2.47-5.51-2.47-5.51-3.07-1-1.34-1.54-1.54-1.78-1.54-1.78-3-.79-1.6-1.84-4.78-1.74-4.78-1.74l-8.05,6.57,1.62,2.76s-1,3.75.31,2.38,1.54,2.61,1.54,2.61.66,4.36,4.58,5.67,6.9,13.79,6.9,13.79l33.1,27.58c-5,5.79-3.84,11.84.63,18Z" transform="translate(-17 -8)"/><path class="cls-2" d="M195.19,49.38a15.9,15.9,0,1,0-15.91-15.89A15.89,15.89,0,0,0,195.19,49.38Z" transform="translate(-17 -8)"/><path class="cls-1" d="M209.07,28.75c-.41.12-6.38.9-9,1.38s-3-2.76-5-2.15a.06.06,0,0,0,0,0,19.2,19.2,0,0,0-1.64-5,14.54,14.54,0,0,1,.12,4.56.45.45,0,0,1,0,.11l0,.2c-2.19-1-3.59-.1-5.1.2-1.7.34-3,1.08-2.07,6.9,1.95,11.95,12.1,16.22,10.34,24.13-.34,1.56-1.21,3.52-2.3,4a19.62,19.62,0,0,0-1.63-4.94,14.78,14.78,0,0,1,.11,4.55c-1.69-1.83-2.91-8.21-8.59-13.27-1.4-1.24-8.42-8.61-9.26-10.35a21.3,21.3,0,0,1,.37,4.22,19,19,0,0,1-.19,2.82,1.1,1.1,0,0,1,0,.18c0,.11,0,.21,0,.31s0,.23-.06.35c-2.29-.33-4.33-.73-5.29-1.67-4.66-4.54,1-13.38,4.14-21.37,4.45-11.46,17.37-13,18.63-13.1,5.53-.56,14.87.62,17.93,6.89C212.59,22.11,211.22,28.13,209.07,28.75Z" transform="translate(-17 -8)"/><path class="cls-1" d="M175.54,31.34l11.52-17.92A17.71,17.71,0,0,0,178,11,11.3,11.3,0,0,0,169.61,15c-2.35,2.92-2.76,7.05-1.88,10.7.31,1.26,6.1-3.17,4.73-1.11-1.14,1.62-3,8.43-3.45,10.35-.75,3.08-2.81,6.24-1,8.84,2.17,3.06,6,4.58,9.78,4.74s7.44-.89,11-2.06Z" transform="translate(-17 -8)"/><path class="cls-8" d="M180,30.63a.69.69,0,0,1-.68-.59.73.73,0,0,1,.11-.48.7.7,0,0,1,.39-.28,8.45,8.45,0,0,0,0-2.57c-.22-3.81-.6-10.18,5.59-14.49a.73.73,0,0,1,.52-.11.71.71,0,0,1,.56.8.76.76,0,0,1-.29.45c-5.55,3.86-5.22,9.52-5,13.27.13,2.14.22,3.69-1.08,4Z" transform="translate(-17 -8)"/><path class="cls-9" d="M17,319.61a.78.78,0,0,0,.24.58.83.83,0,0,0,.58.24H511.18a.78.78,0,0,0,.58-.24.83.83,0,0,0,.24-.58.84.84,0,0,0-.24-.58.83.83,0,0,0-.58-.24H17.82a.81.81,0,0,0-.31.06.85.85,0,0,0-.45.44.87.87,0,0,0-.06.32Z" transform="translate(-17 -8)"/><path class="cls-8" d="M322.23,73.4H311.79a1,1,0,0,1,0-2.09h10.44a1,1,0,0,1,1,1,1.05,1.05,0,0,1-.3.74A1,1,0,0,1,322.23,73.4Z" transform="translate(-17 -8)"/><path class="cls-8" d="M341,73.4H330.58a1.1,1.1,0,0,1-.4-.08,1,1,0,0,1-.34-.23,1.11,1.11,0,0,1-.22-.34.9.9,0,0,1-.08-.4,1,1,0,0,1,.08-.4,1.06,1.06,0,0,1,.22-.33,1,1,0,0,1,.34-.23,1.1,1.1,0,0,1,.4-.08H341a1.14,1.14,0,0,1,.4.08,1.08,1.08,0,0,1,.34.23A1.06,1.06,0,0,1,342,72a1.14,1.14,0,0,1,.08.4,1.06,1.06,0,0,1-.08.4,1.11,1.11,0,0,1-.22.34,1.08,1.08,0,0,1-.34.23A1.14,1.14,0,0,1,341,73.4Z" transform="translate(-17 -8)"/><path class="cls-8" d="M350.41,81.74H340a1,1,0,0,1-.4-.08.91.91,0,0,1-.33-.22,1,1,0,0,1-.23-.34,1,1,0,0,1,0-.8,1,1,0,0,1,.23-.34,1.06,1.06,0,0,1,.33-.22,1,1,0,0,1,.4-.08h10.44a.92.92,0,0,1,.4.08,1.11,1.11,0,0,1,.34.22,1,1,0,0,1,.22.34,1,1,0,0,1,0,.8,1,1,0,0,1-.56.56A.92.92,0,0,1,350.41,81.74Z" transform="translate(-17 -8)"/><path class="cls-8" d="M331.68,81.74H311.79a1,1,0,0,1,0-2.08h19.89a1,1,0,1,1,0,2.08Z" transform="translate(-17 -8)"/><path class="cls-8" d="M369.25,73.4H349.37a1,1,0,0,1,0-2.09h19.88a1.06,1.06,0,0,1,.4.08.89.89,0,0,1,.34.23.94.94,0,0,1,.23.33,1.14,1.14,0,0,1,.08.4,1.06,1.06,0,0,1-.08.4,1,1,0,0,1-.23.34.89.89,0,0,1-.34.23A1.06,1.06,0,0,1,369.25,73.4Z" transform="translate(-17 -8)"/><path class="cls-8" d="M329.38,57.59H309.49a.9.9,0,0,1-.4-.08,1.11,1.11,0,0,1-.34-.22,1.08,1.08,0,0,1-.23-.34,1.1,1.1,0,0,1-.08-.4,1.06,1.06,0,0,1,.08-.4,1,1,0,0,1,.23-.34,1.13,1.13,0,0,1,.34-.23,1.06,1.06,0,0,1,.4-.08h19.89a1,1,0,0,1,.73.31,1,1,0,0,1,.31.74,1,1,0,0,1-1,1Z" transform="translate(-17 -8)"/><path class="cls-8" d="M331,63.69a1,1,0,0,1-.88-.63.93.93,0,0,1,0-.57.88.88,0,0,1,.33-.47l5.09-4a2,2,0,0,0,.5-.59,2.11,2.11,0,0,0,.22-.74,2,2,0,0,0-.1-.76,1.92,1.92,0,0,0-.39-.66l-4.28-4.63a.89.89,0,0,1-.19-.31,1,1,0,0,1-.06-.36,1.06,1.06,0,0,1,.09-.35,1,1,0,0,1,.21-.3,1.23,1.23,0,0,1,.31-.19.9.9,0,0,1,.36-.05.86.86,0,0,1,.36.08.89.89,0,0,1,.29.22l6.35,6.87a.79.79,0,0,1,.2.33,1,1,0,0,1,.05.38.92.92,0,0,1-.36.66l-7.51,5.83A.9.9,0,0,1,331,63.69Z" transform="translate(-17 -8)"/><path class="cls-8" d="M308.48,63.69a.86.86,0,0,0,.54-.18,1,1,0,0,0,.35-.45,1,1,0,0,0,0-.57.92.92,0,0,0-.32-.47l-5.1-4a1.86,1.86,0,0,1-.49-.59,1.76,1.76,0,0,1-.22-.74,2,2,0,0,1,.09-.76,2,2,0,0,1,.4-.66L308,50.68a.77.77,0,0,0,.19-.31.85.85,0,0,0,.06-.36.86.86,0,0,0-.09-.35,1,1,0,0,0-.21-.3,1.23,1.23,0,0,0-.31-.19.9.9,0,0,0-.36-.05.94.94,0,0,0-.36.08.89.89,0,0,0-.29.22l-6.35,6.87a.91.91,0,0,0-.2.33.81.81,0,0,0,0,.38,1,1,0,0,0,.1.37,1.16,1.16,0,0,0,.25.29l7.51,5.83A.9.9,0,0,0,308.48,63.69Z" transform="translate(-17 -8)"/><path class="cls-8" d="M339.66,99.64H319.77a1,1,0,0,1-.74-.31,1.07,1.07,0,0,1-.3-.74,1.09,1.09,0,0,1,.3-.74,1.07,1.07,0,0,1,.74-.3h19.89a1,1,0,0,1,1,1,1.07,1.07,0,0,1-.3.74A1.05,1.05,0,0,1,339.66,99.64Z" transform="translate(-17 -8)"/><path class="cls-8" d="M343.16,104.8a1,1,0,0,1-.88-.63.86.86,0,0,1,0-.57.82.82,0,0,1,.32-.47l5.09-4a2,2,0,0,0,.5-.59,1.92,1.92,0,0,0,.22-.74,1.82,1.82,0,0,0-.1-.76,1.92,1.92,0,0,0-.39-.66l-4.28-4.63a.89.89,0,0,1-.19-.31,1,1,0,0,1-.06-.36,1.06,1.06,0,0,1,.09-.35,1,1,0,0,1,.21-.3,1.23,1.23,0,0,1,.31-.19.9.9,0,0,1,.36,0,.86.86,0,0,1,.36.08.89.89,0,0,1,.29.22l6.35,6.87a.79.79,0,0,1,.2.33,1,1,0,0,1,.05.38.92.92,0,0,1-.36.66l-7.51,5.83A.9.9,0,0,1,343.16,104.8Z" transform="translate(-17 -8)"/><path class="cls-8" d="M308.48,104.8a.86.86,0,0,0,.54-.18,1,1,0,0,0,.35-.45,1,1,0,0,0,0-.57.92.92,0,0,0-.32-.47l-5.1-4a1.86,1.86,0,0,1-.49-.59,1.76,1.76,0,0,1-.22-.74,2,2,0,0,1,.09-.76,2,2,0,0,1,.4-.66L308,91.79a.92.92,0,0,0,.25-.67,1,1,0,0,0-.3-.65,1,1,0,0,0-.67-.24.9.9,0,0,0-.65.3l-6.35,6.87a.91.91,0,0,0-.2.33.81.81,0,0,0,0,.38,1,1,0,0,0,.1.37,1.16,1.16,0,0,0,.25.29l7.51,5.83A.9.9,0,0,0,308.48,104.8Z" transform="translate(-17 -8)"/><path class="cls-8" d="M310.26,101.87l4.18-9.56a1,1,0,0,1,1.91.84l-4.18,9.56a1.13,1.13,0,0,1-.23.34,1.15,1.15,0,0,1-.35.22,1.05,1.05,0,0,1-.4.07,1.05,1.05,0,0,1-.73-.32,1,1,0,0,1-.22-.35.89.89,0,0,1-.07-.4A.93.93,0,0,1,310.26,101.87Z" transform="translate(-17 -8)"/></g></svg>