<?xml version="1.0" encoding="UTF-8" standalone="no"?>
<!-- Created with Inkscape (http://www.inkscape.org/) -->

<svg
   width="7.8236446mm"
   height="7.7955775mm"
   viewBox="0 0 7.8236448 7.795578"
   version="1.1"
   id="svg2196"
   xmlns:inkscape="http://www.inkscape.org/namespaces/inkscape"
   xmlns:sodipodi="http://sodipodi.sourceforge.net/DTD/sodipodi-0.dtd"
   xmlns="http://www.w3.org/2000/svg"
   xmlns:svg="http://www.w3.org/2000/svg">
  <sodipodi:namedview
     id="namedview2198"
     pagecolor="#ffffff"
     bordercolor="#666666"
     borderopacity="1.0"
     inkscape:showpageshadow="2"
     inkscape:pageopacity="0.0"
     inkscape:pagecheckerboard="0"
     inkscape:deskcolor="#d1d1d1"
     inkscape:document-units="mm"
     showgrid="false" />
  <defs
     id="defs2193" />
  <g
     inkscape:label="Layer 1"
     inkscape:groupmode="layer"
     id="layer1"
     transform="translate(-134.64905,-95.99497)">
    <path
       d="m 139.26875,99.99063 h -0.26458 v 0.26458 h 0.26458 z m 1.02306,0.14111 0.25894,0.0547 0.006,-0.0272 v -0.0275 z m -0.14111,0.67028 -0.25894,-0.0543 -0.006,0.0268 v 0.0275 z m -0.88195,-0.19403 h -0.26458 v 0.26458 h 0.26458 z m 0,3.10444 h 0.26459 v -0.26458 h -0.26459 z m -1.05833,-0.26458 h -0.26458 v 0.26458 h 0.26458 z m 0,-2.54 h 0.26458 v -0.26458 h -0.26458 z m 0,-0.61736 h 0.26458 v -0.26458 h -0.26458 z m 0.79375,-0.29986 h 0.52917 v -1.023056 h -0.52917 z m 0.26458,0.26458 h 0.91722 v -0.529164 h -0.91722 z m 0.91722,0 c -0.0282,0 -0.0589,-0.007 -0.0868,-0.0236 -0.0272,-0.0159 -0.0441,-0.0353 -0.054,-0.0501 -0.018,-0.0268 -0.018,-0.0459 -0.018,-0.0497 h 0.52917 c 0,-0.0744 -0.0176,-0.164041 -0.0709,-0.243769 -0.0582,-0.08749 -0.16157,-0.161925 -0.29951,-0.161925 z m -0.1531,-0.17815 -0.14111,0.67063 0.51788,0.10866 0.14111,-0.66993 z m -0.14676,0.72496 c 0,-0.0801 0.0388,-0.13088 0.0529,-0.14746 0.0169,-0.0194 0.0314,-0.0282 0.0356,-0.0311 0.006,-0.004 0.0116,-0.006 0.018,-0.008 0.004,0 0.0226,-0.008 0.0522,-0.008 v 0.52917 c 0.0829,0 0.15699,-0.0325 0.20214,-0.06 0.0268,-0.0159 0.061,-0.0402 0.0921,-0.0762 0.0286,-0.0328 0.0762,-0.10125 0.0762,-0.19897 z m 0.15875,-0.19403 h -0.77611 v 0.52917 h 0.77611 z m -1.04069,2.83986 h 0.52917 v -2.57528 h -0.52917 z m 0.26458,-0.26458 h -1.05833 v 0.52916 h 1.05833 z m -0.79375,-2.27542 h -0.52916 v 2.54 h 0.52916 z m -0.26458,-0.26458 h -0.59972 v 0.52917 h 0.59972 z m -0.59972,0 c 0.005,0 0.0582,0.004 0.10759,0.0508 0.0498,0.0497 0.0512,0.1023 0.0512,0.10795 h -0.52917 c 0,0.0762 0.019,0.18203 0.10372,0.2667 0.085,0.0847 0.1905,0.10372 0.2667,0.10372 z m 0.15875,-0.51153 h -0.52917 v 0.67028 h 0.52917 z m 0,0 c 0,0.005 -0.001,0.0586 -0.0512,0.1076 -0.0494,0.0497 -0.1023,0.0512 -0.10759,0.0512 v -0.529166 c -0.0762,0 -0.18168,0.01905 -0.2667,0.104069 -0.0847,0.08467 -0.10372,0.190497 -0.10372,0.266347 z m -0.15875,0.15875 h 0.59972 v -0.529166 h -0.59972 z m 0.8643,-1.428749 h -0.52916 v 1.164169 h 0.52916 z m 0,0 c 0,-0.453673 0.34008,-0.79375 0.79375,-0.79375 v -0.529167 c -0.74577,0 -1.32291,0.577144 -1.32291,1.322917 z m 0.79375,-0.79375 h 0.9525 v -0.529167 h -0.9525 z m 0.9525,0 c -0.005,0 -0.0582,0 -0.1076,-0.05115 -0.0497,-0.04939 -0.0512,-0.102306 -0.0512,-0.107597 h 0.52917 c 0,-0.0762 -0.019,-0.181681 -0.10407,-0.266348 -0.0847,-0.08467 -0.19015,-0.104069 -0.26635,-0.104069 z m -0.15875,0.687916 h 0.52917 v -0.846666 h -0.52917 z m 0,0 c 0,-0.0053 0.001,-0.05821 0.0512,-0.107597 0.0494,-0.04939 0.10231,-0.05115 0.1076,-0.05115 v 0.529167 c 0.0762,0 0.18168,-0.0194 0.26635,-0.104069 0.085,-0.08467 0.10407,-0.190148 0.10407,-0.266348 z m 0.15875,-0.15875 h -0.84666 v 0.529167 h 0.84666 z m -0.84666,0 c -0.0762,0 -0.18169,0.0194 -0.2667,0.10407 -0.0847,0.08467 -0.10372,0.190147 -0.10372,0.266347 h 0.52917 c 0,0.0053 -0.001,0.05821 -0.0512,0.107597 -0.0494,0.04974 -0.1023,0.05115 -0.10759,0.05115 z"
       style="fill:#000000;fill-opacity:1;fill-rule:nonzero;stroke:none;stroke-width:0.352778"
       id="path757" />
    <path
       d="m 139.62153,103.18327 h -2.11667 v 0.52916 h 2.11667 z m -2.11667,0 c -0.85584,0 -1.38606,-0.17286 -1.70921,-0.49565 -0.32279,-0.3228 -0.49565,-0.85337 -0.49565,-1.70921 h -0.52916 c 0,0.90805 0.17991,1.61254 0.65087,2.08315 0.47061,0.47096 1.1751,0.65087 2.08315,0.65087 z M 135.3,98.861741 h -0.52916 v 2.116669 H 135.3 Z m 0,0 c 0,-0.855839 0.17286,-1.386064 0.49565,-1.709209 0.32315,-0.322791 0.85337,-0.495652 1.70921,-0.495652 v -0.529167 c -0.90805,0 -1.61254,0.179917 -2.08315,0.650875 -0.47096,0.470958 -0.65087,1.175103 -0.65087,2.083153 z m 2.20486,-2.204861 h 2.11667 v -0.529167 h -2.11667 z m 2.11667,0 c 0.85584,0 1.38606,0.172861 1.70921,0.495652 0.32279,0.323145 0.49565,0.85337 0.49565,1.709209 h 0.52917 c 0,-0.90805 -0.17992,-1.612195 -0.65088,-2.083153 -0.4706,-0.470958 -1.1751,-0.650875 -2.08315,-0.650875 z m 2.20486,4.32153 h 0.52917 v -2.116669 h -0.52917 z m 0,0 c 0,0.85584 -0.17286,1.38641 -0.49565,1.70921 -0.32315,0.32279 -0.85337,0.49565 -1.70921,0.49565 v 0.52916 c 0.90805,0 1.61255,-0.17991 2.08315,-0.65087 0.47096,-0.47061 0.65088,-1.1751 0.65088,-2.08315 z"
       style="fill:#000000;fill-opacity:1;fill-rule:nonzero;stroke:none;stroke-width:0.352778"
       id="path759" />
  </g>
</svg>
