<?xml version="1.0" encoding="UTF-8" standalone="no"?>
<!-- Created with Inkscape (http://www.inkscape.org/) -->

<svg
   width="6.8248291mm"
   height="6.8688011mm"
   viewBox="0 0 6.8248291 6.8688011"
   version="1.1"
   id="svg2024"
   inkscape:version="1.2.1 (8a69933317, 2022-10-28, custom)"
   sodipodi:docname="facebook.svg"
   xmlns:inkscape="http://www.inkscape.org/namespaces/inkscape"
   xmlns:sodipodi="http://sodipodi.sourceforge.net/DTD/sodipodi-0.dtd"
   xmlns="http://www.w3.org/2000/svg"
   xmlns:svg="http://www.w3.org/2000/svg">
  <sodipodi:namedview
     id="namedview2026"
     pagecolor="#ffffff"
     bordercolor="#666666"
     borderopacity="1.0"
     inkscape:showpageshadow="2"
     inkscape:pageopacity="0.0"
     inkscape:pagecheckerboard="0"
     inkscape:deskcolor="#d1d1d1"
     inkscape:document-units="mm"
     showgrid="false"
     showguides="false"
     inkscape:zoom="10.844844"
     inkscape:cx="20.747187"
     inkscape:cy="17.012694"
     inkscape:window-width="1366"
     inkscape:window-height="704"
     inkscape:window-x="0"
     inkscape:window-y="27"
     inkscape:window-maximized="1"
     inkscape:current-layer="g837" />
  <defs
     id="defs2021" />
  <g
     inkscape:label="Layer 1"
     inkscape:groupmode="layer"
     id="layer1"
     transform="translate(-0.05433743)">
    <g
       id="g837"
       transform="matrix(0.35277777,0,0,-0.35277777,1.1528169,6.4186304)">
      <g
         id="g1019"
         transform="matrix(0.74036234,0,0,0.73132776,6.4974912,18.001258)">
        <path
           d="m 0,0 c -7.183,0 -13.028,-5.843 -13.028,-13.027 0,-7.184 5.845,-13.028 13.028,-13.028 7.184,0 13.028,5.844 13.028,13.028 C 13.028,-5.843 7.184,0 0,0 m 0,-25.187 c -6.705,0 -12.159,5.455 -12.159,12.16 0,6.704 5.454,12.159 12.159,12.159 6.705,0 12.159,-5.455 12.159,-12.159 0,-6.705 -5.454,-12.16 -12.159,-12.16"
           style="fill:#ffffff;fill-opacity:1;fill-rule:nonzero;stroke:none"
           id="path1021" />
      </g>
      <g
         id="g1023"
         transform="matrix(0.74036234,0,0,0.73132776,8.6029339,13.821866)">
        <path
           d="M 0,0 H -2.168 C -4.929,0.027 -5.281,-1.681 -5.281,-3.53 V -4.875 H -6.5 c -0.055,0.007 -0.111,0.002 -0.164,-0.016 -0.052,-0.018 -0.1,-0.047 -0.14,-0.087 -0.039,-0.039 -0.069,-0.087 -0.086,-0.14 -0.018,-0.052 -0.024,-0.109 -0.016,-0.163 v -2.438 c -0.008,-0.055 -0.002,-0.111 0.016,-0.164 0.017,-0.053 0.047,-0.1 0.086,-0.139 0.04,-0.04 0.088,-0.069 0.14,-0.087 0.053,-0.018 0.109,-0.023 0.164,-0.016 h 1.219 v -6.094 c -0.007,-0.055 -0.001,-0.111 0.017,-0.164 0.018,-0.052 0.048,-0.1 0.088,-0.139 0.039,-0.039 0.087,-0.069 0.139,-0.087 0.053,-0.017 0.109,-0.023 0.164,-0.016 h 2.483 c 0.239,-0.028 0.433,0.167 0.357,0.406 l 0.002,6.094 H 0 c 0.055,-0.007 0.111,-0.002 0.164,0.016 0.052,0.018 0.1,0.047 0.14,0.087 0.039,0.039 0.069,0.086 0.086,0.139 0.018,0.053 0.024,0.109 0.016,0.164 v 2.438 c 0.008,0.054 0.002,0.111 -0.016,0.163 -0.017,0.053 -0.047,0.101 -0.086,0.14 -0.04,0.04 -0.088,0.069 -0.14,0.087 C 0.111,-4.873 0.055,-4.868 0,-4.875 h -2.034 l 0.003,1.219 c 0.078,0.519 0.078,0.434 0.56,0.406 h 1.454 c 0.113,0.025 0.233,0.011 0.318,0.093 0.084,0.082 0.133,0.195 0.104,0.313 v 2.438 C 0.413,-0.352 0.408,-0.295 0.39,-0.243 0.372,-0.19 0.343,-0.142 0.303,-0.103 0.264,-0.063 0.216,-0.034 0.164,-0.016 0.111,0.002 0.055,0.007 0,0 m -0.435,-2.392 -1.019,0.039 c -1.261,0 -1.367,-0.685 -1.367,-1.386 L -2.824,-5.28 c 0,-0.057 0.011,-0.114 0.032,-0.166 0.022,-0.053 0.054,-0.101 0.095,-0.141 0.04,-0.04 0.088,-0.072 0.14,-0.094 0.053,-0.022 0.11,-0.033 0.167,-0.033 h 1.984 v -1.57 h -1.983 c -0.115,0 -0.225,-0.046 -0.307,-0.127 -0.081,-0.082 -0.127,-0.192 -0.127,-0.307 l -10e-4,-6.095 h -1.645 v 6.094 c 0,0.24 -0.163,0.434 -0.404,0.434 h -1.221 v 1.57 h 1.221 c 0.058,0 0.114,0.011 0.166,0.032 0.053,0.022 0.101,0.054 0.142,0.095 0.081,0.082 0.095,0.192 0.095,0.308 v 1.751 c 0,1.821 0.368,2.689 2.302,2.689 h 1.732 v -1.552 z"
           style="fill:#ffffff;fill-opacity:1;fill-rule:nonzero;stroke:none"
           id="path1025" />
      </g>
    </g>
  </g>
</svg>
