<?xml version="1.0" encoding="UTF-8" standalone="no"?>
<!-- Created with Inkscape (http://www.inkscape.org/) -->

<svg
   width="7.8236446mm"
   height="7.7955775mm"
   viewBox="0 0 7.8236448 7.795578"
   version="1.1"
   id="svg2196"
   inkscape:export-filename="facebook_black.svg"
   inkscape:export-xdpi="96"
   inkscape:export-ydpi="96"
   xmlns:inkscape="http://www.inkscape.org/namespaces/inkscape"
   xmlns:sodipodi="http://sodipodi.sourceforge.net/DTD/sodipodi-0.dtd"
   xmlns="http://www.w3.org/2000/svg"
   xmlns:svg="http://www.w3.org/2000/svg">
  <sodipodi:namedview
     id="namedview2198"
     pagecolor="#ffffff"
     bordercolor="#666666"
     borderopacity="1.0"
     inkscape:showpageshadow="2"
     inkscape:pageopacity="0.0"
     inkscape:pagecheckerboard="0"
     inkscape:deskcolor="#d1d1d1"
     inkscape:document-units="mm"
     showgrid="false" />
  <defs
     id="defs2193" />
  <g
     inkscape:label="Layer 1"
     inkscape:groupmode="layer"
     id="layer1"
     transform="translate(-134.64905,-95.99497)">
    <path
       d="m 137.50209,103.71523 h 2.11666 v -0.52916 h -2.11666 z m 2.11666,0 c 0.90805,0 1.61255,-0.17991 2.08316,-0.65087 0.47095,-0.47061 0.65087,-1.1751 0.65087,-2.08315 h -0.52917 c 0,0.85584 -0.17286,1.38641 -0.49565,1.70921 -0.32314,0.32279 -0.85337,0.49565 -1.70921,0.49565 z m 2.73403,-4.850685 h -0.52917 v 2.116665 h 0.52917 z m 0,0 c 0,-0.90805 -0.17992,-1.612194 -0.65087,-2.083152 -0.47061,-0.470958 -1.17511,-0.650875 -2.08316,-0.650875 v 0.529167 c 0.85584,0 1.38607,0.172861 1.70921,0.495652 0.32279,0.323145 0.49565,0.853368 0.49565,1.709208 z m -2.73403,-2.734027 h -2.11666 v 0.529167 h 2.11666 z m -2.11666,0 c -0.90805,0 -1.61255,0.179917 -2.08316,0.650875 -0.47095,0.470958 -0.65087,1.175102 -0.65087,2.083152 h 0.52917 c 0,-0.85584 0.17286,-1.386063 0.49565,-1.709208 0.32314,-0.322791 0.85337,-0.495652 1.70921,-0.495652 z m -2.73403,4.850692 h 0.52917 v -2.116665 h -0.52917 z m 0,0 c 0,0.90805 0.17992,1.61254 0.65087,2.08315 0.47061,0.47096 1.17511,0.65087 2.08316,0.65087 v -0.52916 c -0.85584,0 -1.38607,-0.17286 -1.70921,-0.49565 -0.32279,-0.3228 -0.49565,-0.85337 -0.49565,-1.70921 z"
       style="fill:#000000;fill-opacity:1;fill-rule:nonzero;stroke:none;stroke-width:0.352778"
       id="path761" />
    <path
       d="m 138.56042,98.688165 v -0.26458 z m -1.23472,1.23472 h -0.26459 z m 1.23472,1.499305 c 0.19685,0 0.39194,-0.0385 0.57362,-0.11395 l -0.2025,-0.48895 c -0.11747,0.0487 -0.24377,0.0737 -0.37112,0.0737 z m 0.57362,-0.11395 c 0.18203,-0.0755 0.34713,-0.18591 0.48648,-0.32526 l -0.3743,-0.3743 c -0.09,0.0903 -0.19685,0.16157 -0.31468,0.21061 z m 0.48648,-0.32526 c 0.13934,-0.13935 0.24976,-0.3041 0.32491,-0.48613 l -0.4886,-0.20249 c -0.049,0.11747 -0.1203,0.22436 -0.21061,0.31432 z m 0.32491,-0.48613 c 0.0755,-0.18203 0.1143,-0.37677 0.1143,-0.573965 h -0.52917 c 0,0.127345 -0.0251,0.253645 -0.0737,0.371475 z m 0.1143,-0.573965 c 0,-0.1972 -0.0388,-0.39158 -0.1143,-0.57361 l -0.4886,0.20214 c 0.0487,0.11782 0.0737,0.24412 0.0737,0.37147 z m -0.1143,-0.57361 c -0.0751,-0.18204 -0.18557,-0.34714 -0.32491,-0.48649 l -0.3743,0.3743 c 0.0903,0.09 0.16157,0.19685 0.21061,0.31433 z m -0.32491,-0.48649 c -0.13935,-0.13899 -0.30445,-0.24976 -0.48648,-0.32526 l -0.2025,0.48895 c 0.11783,0.049 0.22472,0.1203 0.31468,0.21061 z m -0.48648,-0.32526 c -0.18168,-0.0751 -0.37677,-0.11394 -0.57362,-0.11394 v 0.52916 c 0.12735,0 0.25365,0.0251 0.37112,0.0737 z m -0.57362,-0.11394 c -0.39758,0 -0.77893,0.15804 -1.0601,0.4392 l 0.3743,0.3743 c 0.18168,-0.18203 0.42863,-0.28434 0.6858,-0.28434 z m -1.0601,0.4392 c -0.28116,0.28117 -0.43921,0.66252 -0.43921,1.0601 h 0.52917 c 0,-0.25717 0.10231,-0.50412 0.28434,-0.6858 z m -0.43921,1.0601 c 0,0.397575 0.15805,0.778935 0.43921,1.060095 l 0.3743,-0.3743 c -0.18203,-0.18168 -0.28434,-0.42862 -0.28434,-0.685795 z m 0.43921,1.060095 c 0.28117,0.28152 0.66252,0.43921 1.0601,0.43921 v -0.52917 c -0.25717,0 -0.50412,-0.1023 -0.6858,-0.28434 z"
       style="fill:#000000;fill-opacity:1;fill-rule:nonzero;stroke:none;stroke-width:0.352778"
       id="path765" />
    <path
       d="m 140.54857,97.806198 c -0.19473,0 -0.35278,0.157687 -0.35278,0.352777 0,0.19509 0.15805,0.35278 0.35278,0.35278 z m 0.004,0.705557 c 0.19474,0 0.35278,-0.15769 0.35278,-0.35278 0,-0.19509 -0.15804,-0.352777 -0.35278,-0.352777 z m -0.004,0 h 0.004 v -0.705557 h -0.004 z"
       style="fill:#000000;fill-opacity:1;fill-rule:nonzero;stroke:none;stroke-width:0.352778"
       id="path769" />
  </g>
</svg>
