<svg id="Layer_1" data-name="Layer 1" xmlns="http://www.w3.org/2000/svg" viewBox="0 0 136.5 235.9"><defs><style>.cls-1{fill:#262262;}</style></defs><title>itCodx-Group</title><path class="cls-1" d="M329.53,253.8v-25H282.59V187.55h-32v41.29H222.61v25h27.94v98.36c0,21.24,3.36,37.26,12.67,46.94,7.82,8.94,20.12,13.79,35.39,13.79,12.67,0,22.73-1.87,29.06-4.47l-1.49-24.59a73.32,73.32,0,0,1-19,2.23c-18.25,0-24.59-12.66-24.59-35l-.44-83.38a15.25,15.25,0,0,1,16-15.32Z" transform="translate(-193.03 -177.06)"/><polygon class="cls-1" points="57.52 8.56 89.56 0 89.56 10.49 57.52 10.49 57.52 8.56"/><path class="cls-1" d="M227,396.12c.31,9.35-6.54,16.83-17.45,16.83-9.66,0-16.52-7.48-16.52-16.83A16.71,16.71,0,0,1,210.17,379C220.46,379,227,386.46,227,396.12Z" transform="translate(-193.03 -177.06)"/><path class="cls-1" d="M223.71,228.83V364.49h-.23C221,360,216.32,357,210.16,357a15.15,15.15,0,0,0-13.46,7.47h-.36V256.21A27.37,27.37,0,0,1,223.71,228.83Z" transform="translate(-193.03 -177.06)"/><rect class="cls-1" x="3.3" y="160.94" width="27.38" height="27.38"/></svg>