<?xml version="1.0" encoding="UTF-8" standalone="no"?>
<!-- Created with Inkscape (http://www.inkscape.org/) -->

<svg
   width="6.8248291mm"
   height="6.8688011mm"
   viewBox="0 0 6.8248291 6.8688011"
   version="1.1"
   id="svg2024"
   inkscape:version="1.2.1 (8a69933317, 2022-10-28, custom)"
   sodipodi:docname="linkedin.svg"
   xmlns:inkscape="http://www.inkscape.org/namespaces/inkscape"
   xmlns:sodipodi="http://sodipodi.sourceforge.net/DTD/sodipodi-0.dtd"
   xmlns="http://www.w3.org/2000/svg"
   xmlns:svg="http://www.w3.org/2000/svg">
  <sodipodi:namedview
     id="namedview2026"
     pagecolor="#ffffff"
     bordercolor="#666666"
     borderopacity="1.0"
     inkscape:showpageshadow="2"
     inkscape:pageopacity="0.0"
     inkscape:pagecheckerboard="0"
     inkscape:deskcolor="#d1d1d1"
     inkscape:document-units="mm"
     showgrid="false"
     showguides="false"
     inkscape:zoom="10.844844"
     inkscape:cx="20.747187"
     inkscape:cy="17.012694"
     inkscape:window-width="1366"
     inkscape:window-height="704"
     inkscape:window-x="0"
     inkscape:window-y="27"
     inkscape:window-maximized="1"
     inkscape:current-layer="g837" />
  <defs
     id="defs2021" />
  <g
     inkscape:label="Layer 1"
     inkscape:groupmode="layer"
     id="layer1"
     transform="translate(-0.05433743)">
    <g
       id="g837"
       transform="matrix(0.35277777,0,0,-0.35277777,1.1528169,6.4186304)">
      <path
         d="m 8.9268229,10.765847 c -0.4040218,0.03284 -0.7106376,-0.04609 -0.9555814,-0.156932 -0.026739,0.137413 -0.1428291,0.246226 -0.2903088,0.229076 L 5.9035321,10.982483 C 5.729848,11.025743 5.5762344,10.894025 5.6156585,10.702529 L 5.0894351,4.0669803 C 5.0218103,3.9028672 5.152521,3.7457931 5.3295023,3.7441076 L 7.1069039,3.5996148 c 0.1749783,-0.026927 0.3287688,0.1070187 0.3428403,0.2844517 l 0.317308,4.010491 c 1.184e-4,0.00148 0.00877,0.1943021 0.1387671,0.3167326 0.1043574,0.096869 0.2735781,0.1369098 0.5016189,0.1183714 C 8.7872613,8.2987833 8.9441619,8.1276258 8.9793146,7.7706031 L 8.6632741,3.7854132 C 8.5868757,3.613047 8.7175916,3.4559728 8.8945693,3.4542874 L 10.768025,3.3019858 c 0.17498,-0.026927 0.32877,0.1070188 0.279782,0.2895781 l 0.326637,4.1188214 C 11.602857,9.7996219 10.188748,10.663259 8.9268229,10.765847 M 10.496867,3.9307425 9.2606063,4.0312437 9.55345,7.723929 C 9.6099081,8.4358883 9.1903253,8.9145725 8.4592745,8.9740029 8.0457214,9.0076225 7.7140507,8.910553 7.4734154,8.6865333 7.1386625,8.3737784 7.128155,7.9435075 7.1872864,7.8423138 L 6.9002716,4.2231259 5.6948063,4.3211239 6.1722225,10.341225 7.3146279,10.248355 7.2985579,10.04568 c -0.00552,-0.060074 0.00596,-0.1207774 0.033389,-0.174566 0.027468,-0.053788 0.068905,-0.098999 0.1203062,-0.1300768 0.051412,-0.031078 0.110652,-0.047102 0.1698415,-0.045189 0.059864,0.00111 0.1181501,0.019536 0.1680805,0.053582 l 0.088713,0.057793 C 8.1353758,9.9798928 8.401252,10.15927 8.8763993,10.120644 9.3684104,10.080644 10.962363,9.7911694 10.800988,7.7562578 L 10.497601,3.9306829 Z M 4.0926939,14.185676 c -0.668725,0.05436 -1.2556902,-0.451583 -1.3093841,-1.128649 -0.053635,-0.676324 0.4460777,-1.270611 1.1148027,-1.324975 0.6679917,-0.0543 1.2549569,0.451642 1.3085919,1.127965 0.053694,0.677067 -0.4460188,1.271355 -1.1140105,1.325659 M 3.949157,12.375711 c -0.3174979,0.02581 -0.5548193,0.308859 -0.5293853,0.629575 0.025492,0.321458 0.3043211,0.5618 0.6218188,0.535989 C 4.358355,13.515528 4.5964686,13.233158 4.5709758,12.9117 4.5455419,12.590984 4.2659214,12.34996 3.949157,12.375711 M 4.704763,11.109077 2.9368948,11.252795 C 2.7609146,11.267101 2.6065678,11.135442 2.6364597,10.944722 L 2.1102361,4.3091727 C 2.0521434,4.1442847 2.1835875,3.987151 2.3605688,3.9854655 L 4.1284371,3.8417476 c 0.1742461,-0.026868 0.3287696,0.1070187 0.3428407,0.2844517 l 0.5262234,6.6355487 c 0.00677,0.08538 -0.020483,0.169782 -0.075048,0.235487 -0.055358,0.06502 -0.133366,0.104987 -0.2176899,0.111842 M 3.9210721,4.4653183 2.7258729,4.5624814 3.2032303,10.58184 4.3984294,10.484677 Z"
         style="fill:#ffffff;fill-opacity:1;fill-rule:nonzero;stroke:none;stroke-width:0.740185"
         id="path1029" />
      <g
         id="g1031"
         transform="matrix(0.73325103,-0.05960925,0.05887486,0.74239751,7.4059913,18.16568)">
        <path
           d="m 0,0 c -7.184,0 -13.027,-5.843 -13.027,-13.027 0,-7.184 5.843,-13.028 13.027,-13.028 7.184,0 13.028,5.844 13.028,13.028 C 13.028,-5.843 7.184,0 0,0 m 0,-25.187 c -6.705,0 -12.16,5.455 -12.16,12.16 0,6.704 5.455,12.159 12.16,12.159 6.705,0 12.16,-5.455 12.16,-12.159 0,-6.705 -5.455,-12.16 -12.16,-12.16"
           style="fill:#ffffff;fill-opacity:1;fill-rule:nonzero;stroke:none"
           id="path1033" />
      </g>
    </g>
  </g>
</svg>
