<?xml version="1.0" encoding="UTF-8" standalone="no"?>
<!-- Generator: Adobe Illustrator 19.0.0, SVG Export Plug-In . SVG Version: 6.00 Build 0)  -->

<svg
   version="1.1"
   id="Layer_1"
   x="0px"
   y="0px"
   viewBox="0 0 463 463"
   style="enable-background:new 0 0 463 463;"
   xml:space="preserve"
   sodipodi:docname="maintanence.svg"
   inkscape:version="1.2.1 (8a69933317, 2022-10-28, custom)"
   xmlns:inkscape="http://www.inkscape.org/namespaces/inkscape"
   xmlns:sodipodi="http://sodipodi.sourceforge.net/DTD/sodipodi-0.dtd"
   xmlns="http://www.w3.org/2000/svg"
   xmlns:svg="http://www.w3.org/2000/svg"><defs
   id="defs131" /><sodipodi:namedview
   id="namedview129"
   pagecolor="#ffffff"
   bordercolor="#666666"
   borderopacity="1.0"
   inkscape:showpageshadow="2"
   inkscape:pageopacity="0.0"
   inkscape:pagecheckerboard="0"
   inkscape:deskcolor="#d1d1d1"
   showgrid="false"
   inkscape:zoom="1.161987"
   inkscape:cx="231.5"
   inkscape:cy="231.9303"
   inkscape:window-width="1366"
   inkscape:window-height="704"
   inkscape:window-x="0"
   inkscape:window-y="27"
   inkscape:window-maximized="1"
   inkscape:current-layer="Layer_1" />
<g
   id="g96">
	<g
   id="g94">
		<g
   id="g92">
			<path
   d="M455.5,348H447V99.5c0-17.369-14.131-31.5-31.5-31.5h-368C30.131,68,16,82.131,16,99.5V348H7.5     c-4.142,0-7.5,3.358-7.5,7.5v16C0,384.458,10.542,395,23.5,395h416c12.958,0,23.5-10.542,23.5-23.5v-16     C463,351.358,459.642,348,455.5,348z M31,99.5C31,90.402,38.402,83,47.5,83h368c9.098,0,16.5,7.402,16.5,16.5V348H31V99.5z      M448,371.5c0,4.687-3.813,8.5-8.5,8.5h-416c-4.687,0-8.5-3.813-8.5-8.5V363h169.025c-0.011,0.166-0.025,0.331-0.025,0.5     c0,4.142,3.358,7.5,7.5,7.5h80c4.142,0,7.5-3.358,7.5-7.5c0-0.169-0.014-0.334-0.025-0.5H448V371.5z"
   id="path88" />
			<path
   d="M407.5,100h-352c-4.142,0-7.5,3.358-7.5,7.5v216c0,4.142,3.358,7.5,7.5,7.5h352c4.142,0,7.5-3.358,7.5-7.5v-216     C415,103.358,411.642,100,407.5,100z M400,316H63V115h337V316z"
   id="path90" />
		</g>
	</g>
</g>
<g
   id="g98">
</g>
<g
   id="g100">
</g>
<g
   id="g102">
</g>
<g
   id="g104">
</g>
<g
   id="g106">
</g>
<g
   id="g108">
</g>
<g
   id="g110">
</g>
<g
   id="g112">
</g>
<g
   id="g114">
</g>
<g
   id="g116">
</g>
<g
   id="g118">
</g>
<g
   id="g120">
</g>
<g
   id="g122">
</g>
<g
   id="g124">
</g>
<g
   id="g126">
</g>
<path
   d="m 223.49307,170.62426 a 48.727454,42.09004 0 1 0 48.72746,42.09004 48.779662,42.135137 0 0 0 -48.72746,-42.09004 z m 0,72.15435 a 34.805324,30.064315 0 1 1 34.80533,-30.06431 34.84361,30.097385 0 0 1 -34.80533,30.06431 z"
   id="path25"
   style="stroke-width:3.23481" /><path
   d="m 320.94798,191.66928 h -24.93105 a 76.007867,65.65445 0 0 0 -4.01306,-8.36991 l 17.6289,-15.23058 a 6.9610648,6.0128629 0 0 0 0,-8.50219 l -24.61085,-21.25847 a 6.9610648,6.0128629 0 0 0 -9.84294,0 l -17.6289,15.22457 a 76.122724,65.753662 0 0 0 -9.69328,-3.46341 v -21.53507 a 6.9610648,6.0128629 0 0 0 -6.96107,-6.01286 h -34.80532 a 6.9610648,6.0128629 0 0 0 -6.96106,6.01286 v 21.53507 a 76.122724,65.753662 0 0 0 -9.69329,3.46341 l -17.62889,-15.22457 a 6.9610648,6.0128629 0 0 0 -9.84295,0 l -24.61085,21.25847 a 6.9610648,6.0128629 0 0 0 0,8.50219 l 17.6289,15.23058 a 76.007867,65.65445 0 0 0 -4.01306,8.36991 h -24.93105 a 6.9610648,6.0128629 0 0 0 -6.96106,6.01286 v 30.06432 a 6.9610648,6.0128629 0 0 0 6.96106,6.01286 h 24.93105 a 76.286309,65.894965 0 0 0 4.00958,8.36991 l -17.62542,15.23058 a 6.9610648,6.0128629 0 0 0 0,8.50219 l 24.61085,21.25847 a 6.9610648,6.0128629 0 0 0 9.84295,0 l 17.63237,-15.22757 a 76.007867,65.65445 0 0 0 9.68981,3.46641 v 21.53507 a 6.9610648,6.0128629 0 0 0 6.96106,6.01286 h 34.80532 a 6.9610648,6.0128629 0 0 0 6.96107,-6.01286 v -21.53507 a 76.007867,65.65445 0 0 0 9.6898,-3.46641 l 17.63238,15.22757 a 6.9610648,6.0128629 0 0 0 9.84294,0 L 309.63277,265.862 a 6.9610648,6.0128629 0 0 0 0,-8.50219 l -17.62542,-15.23058 a 76.286309,65.894965 0 0 0 4.00958,-8.36991 h 24.93105 a 6.9610648,6.0128629 0 0 0 6.96106,-6.01286 v -30.06432 a 6.9610648,6.0128629 0 0 0 -6.96106,-6.01286 z m -6.96107,30.06431 h -23.16294 a 6.9610648,6.0128629 0 0 0 -6.74179,4.50965 62.228439,53.751988 0 0 1 -6.66522,13.90775 6.9610648,6.0128629 0 0 0 1.072,7.31164 l 16.37939,14.14827 -14.7679,12.75629 -16.37938,-14.15127 a 6.9610648,6.0128629 0 0 0 -8.46118,-0.92899 62.217997,53.742969 0 0 1 -16.10442,5.76333 6.9610648,6.0128629 0 0 0 -5.2208,5.82346 v 20.0078 h -20.88319 v -20.0078 a 6.9610648,6.0128629 0 0 0 -5.2208,-5.82346 62.217997,53.742969 0 0 1 -16.10443,-5.76032 6.9610648,6.0128629 0 0 0 -8.46117,0.92898 l -16.37939,14.14827 -14.7679,-12.75629 16.38287,-14.14827 a 6.9610648,6.0128629 0 0 0 1.07201,-7.31164 62.228439,53.751988 0 0 1 -6.66871,-13.90775 6.9610648,6.0128629 0 0 0 -6.74179,-4.50965 h -23.16295 v -18.03858 h 23.16295 a 6.9610648,6.0128629 0 0 0 6.74179,-4.50965 62.217997,53.742969 0 0 1 6.66871,-13.91076 6.9610648,6.0128629 0 0 0 -1.0755,-7.30863 l -16.37938,-14.14827 14.7679,-12.75629 16.37939,14.15127 a 6.9610648,6.0128629 0 0 0 8.46466,0.92598 62.099659,53.64075 0 0 1 16.10094,-5.76032 6.9610648,6.0128629 0 0 0 5.2208,-5.82345 v -20.0078 h 20.88319 v 20.0078 a 6.9610648,6.0128629 0 0 0 5.2208,5.82345 62.099659,53.64075 0 0 1 16.10094,5.75732 6.9610648,6.0128629 0 0 0 8.46466,-0.92598 l 16.37938,-14.14827 14.7679,12.75629 -16.38287,14.14827 a 6.9610648,6.0128629 0 0 0 -1.07548,7.30863 62.217997,53.742969 0 0 1 6.67218,13.91076 6.9610648,6.0128629 0 0 0 6.74179,4.50965 h 23.16294 z"
   id="path27"
   style="stroke-width:3.23481" /><rect
   height="12.025725"
   width="13.92213"
   x="202.60992"
   y="206.70146"
   id="rect29"
   style="stroke-width:3.23481" /><rect
   height="12.025725"
   width="13.92213"
   x="230.45418"
   y="206.70146"
   id="rect31"
   style="stroke-width:3.23481" /></svg>
