<svg id="Layer_1" data-name="Layer 1" xmlns="http://www.w3.org/2000/svg" viewBox="0 0 448 348"><defs><style>.cls-1{fill:#e6e6e5;}.cls-2{fill:#cbcbcb;}.cls-3{fill:#e5e5e5;}.cls-4,.cls-6{fill:#010101;}.cls-4{opacity:0.2;}.cls-5{fill:#403e56;}.cls-7{fill:#f16583;}.cls-8{fill:#51c6dc;}.cls-9{fill:#f2f2f2;}.cls-10{fill:#019bb3;}.cls-11{fill:#f9b6b7;}.cls-12{fill:#302e41;}</style></defs><title>Service-photo</title><path class="cls-1" d="M302.42,368.11s-6.86-16.91,13.74-29.59Z" transform="translate(-19 -21)"/><path class="cls-1" d="M294,367.81s-2.09-12.06-18.31-11.95Z" transform="translate(-19 -21)"/><path class="cls-1" d="M448.86,368.11S439.78,345.77,467,329Z" transform="translate(-19 -21)"/><path class="cls-1" d="M437.7,367.71s-2.77-15.92-24.19-15.79Z" transform="translate(-19 -21)"/><polygon class="cls-2" points="260.18 96.73 251.22 91.97 251.9 91.62 260.85 96.38 260.18 96.73"/><polygon class="cls-2" points="252.37 96.73 251.7 96.38 260.66 91.62 261.33 91.97 252.37 96.73"/><rect class="cls-2" x="205.26" y="80.48" width="0.95" height="2.84" transform="translate(20.04 206.67) rotate(-62.87)"/><path class="cls-2" d="M216.86,88.14l-5-2.59.44-.84,5,2.58Zm10.08,5.16-5-2.58.43-.85,5,2.59ZM237,98.47l-5-2.59.44-.84,5,2.58Zm10.08,5.16-5-2.58.43-.85,5,2.59Zm10.07,5.17-5-2.59.44-.84,5,2.58Z" transform="translate(-19 -21)"/><rect class="cls-2" x="263.21" y="110.18" width="0.95" height="2.84" transform="translate(25.13 274.4) rotate(-62.87)"/><path class="cls-3" d="M71.54,144.32c0,.3,0,.59,0,.88a13.38,13.38,0,0,1-1.25,4.85l0,0c0,.08-.07.15-.1.22-.22.43-.45.84-.71,1.25a13.47,13.47,0,0,1-11,6.2l.13,7.63,1.74-.91.3.59-2,1.07.25,14.18v.19l-1.34.3v-.19l.42-22.86a13.55,13.55,0,0,1-5.14-1.11,13.32,13.32,0,0,1-4.32-3,3.07,3.07,0,0,1-.25-.26h0a13.69,13.69,0,0,1-2.45-3.79l0,.05a13.45,13.45,0,0,1,6.37-17.31l.14-.07a13.43,13.43,0,0,1,17.4,5.29,2.86,2.86,0,0,1,.24.42A13.41,13.41,0,0,1,71.54,144.32Z" transform="translate(-19 -21)"/><ellipse class="cls-3" cx="50.73" cy="111.49" rx="17.59" ry="17.6"/><path class="cls-4" d="M56.74,120.73a17.59,17.59,0,0,0,29.31,18.63,17.59,17.59,0,1,1-29.31-18.63Z" transform="translate(-19 -21)"/><polygon class="cls-5" points="51.68 160.53 49.88 160.02 49.89 159.83 50.43 130.55 50.45 129.09 50.45 129.05 50.55 123.93 50.69 116.52 50.69 116.52 50.78 111.49 50.83 111.49 50.92 116.94 51.05 124.02 51.13 129.05 51.13 129.09 51.14 129.29 51.14 129.29 51.31 139.1 51.33 140.07 51.68 160.33 51.68 160.53"/><rect class="cls-5" x="69.68" y="159.62" width="3.29" height="0.87" transform="translate(-85.37 30.68) rotate(-27.78)"/><path class="cls-6" d="M297.79,75.53a446.39,446.39,0,0,0-66.63,1c-10.68,1-21.53,2-32,4.34-8.44,1.88-18.24,5-23.5,12.44a12,12,0,0,0-1.87,10.51c1.25,4.21,4.37,7.72,7.69,10.46,7.65,6.33,17.14,10,25.61,15,15.48,9.17,29.64,21.53,38.73,37.23,4,6.91,7.81,16.09,3.35,23.7-4.36,7.46-14.1,10-22,11.24-10,1.52-20.21,1.11-30.21.26A313,313,0,0,1,164.24,197c-21.14-4.06-42.1-9.23-63.54-11.58a183.62,183.62,0,0,0-32.4-.93c-9.76.65-19.6,2.2-28.77,5.72-7.06,2.71-14.59,6.82-18.41,13.66-3.68,6.6-2.24,14.21,1.76,20.3,4.82,7.32,12.34,12.34,20.15,16,8.9,4.18,18.41,6.88,27.94,9.19,4.83,1.17,9.69,2.22,14.55,3.27,1,.22,1.44-1.34.43-1.56-9.8-2.12-19.63-4.24-29.18-7.31-8.84-2.83-17.89-6.47-25.13-12.43-5.86-4.82-11.43-11.86-11.08-19.86s7.11-13.71,13.75-17.17c8.29-4.34,17.7-6.45,26.93-7.55a163.45,163.45,0,0,1,31.82-.43c21.39,1.62,42.3,6.5,63.27,10.75,20.38,4.13,41.39,8,62.27,6.9,8.28-.42,17.14-1.61,24.45-5.79a19.42,19.42,0,0,0,8.06-8.12,18.11,18.11,0,0,0,1.39-10.69c-1.18-8-5.91-15.34-10.62-21.67A104.52,104.52,0,0,0,224,139.17a141.77,141.77,0,0,0-23.61-15.39c-4.44-2.33-8.94-4.58-13.16-7.28-4.06-2.6-8.06-5.72-10.53-9.93-2.14-3.65-2.53-7.81-.3-11.5s6.14-6.35,10-8.25c9.23-4.59,20-5.82,30.06-7.08a445.3,445.3,0,0,1,65.4-3.26q8,.19,15.92.66c1,.06,1-1.55,0-1.61Z" transform="translate(-19 -21)"/><path class="cls-5" d="M283.7,23.72,287.06,21a3.55,3.55,0,0,0-4.12,2.26,5.69,5.69,0,0,0-4.25.26L285.4,26A5.08,5.08,0,0,0,283.7,23.72Z" transform="translate(-19 -21)"/><path class="cls-5" d="M267.42,32.22l3.36-2.69a3.57,3.57,0,0,0-4.12,2.26,5.73,5.73,0,0,0-4.25.27l6.71,2.43A5,5,0,0,0,267.42,32.22Z" transform="translate(-19 -21)"/><path class="cls-5" d="M283.7,45.67,287.06,43a3.55,3.55,0,0,0-4.12,2.26,5.69,5.69,0,0,0-4.25.26L285.4,48A5.08,5.08,0,0,0,283.7,45.67Z" transform="translate(-19 -21)"/><ellipse class="cls-7" cx="214.42" cy="18.54" rx="10.11" ry="10.11"/><path class="cls-8" d="M265.11,70.69H215.35l23.44-40.63a1.62,1.62,0,0,1,.61-.61,1.59,1.59,0,0,1,.82-.23,1.62,1.62,0,0,1,.83.23,1.6,1.6,0,0,1,.6.61l15.74,27.26.75,1.31Z" transform="translate(-19 -21)"/><path class="cls-8" d="M292.71,70.69H249.83l8.31-12.07.6-.87L269.56,42a2.48,2.48,0,0,1,.71-.58,2.22,2.22,0,0,1,.88-.24,2.13,2.13,0,0,1,.9.14,2.15,2.15,0,0,1,.77.49L273,42Z" transform="translate(-19 -21)"/><path class="cls-9" d="M222,163.88c4.7,2.35,7.56,5.46,7.56,8.86,0,7.33-13.26,13.28-29.62,13.28a55.7,55.7,0,0,1-18.75-3c5.43,2.71,13.3,4.42,22.06,4.42,16.36,0,29.63-5.95,29.63-13.28C232.86,170,228.62,166.32,222,163.88Z" transform="translate(-19 -21)"/><path class="cls-9" d="M232.43,168.92c5.3,2.65,8.53,6.15,8.53,10,0,8.28-15,15-33.42,15a62.55,62.55,0,0,1-21.15-3.39c6.12,3.06,15,5,24.89,5,18.46,0,33.43-6.71,33.43-15C244.71,175.84,239.92,171.67,232.43,168.92Z" transform="translate(-19 -21)"/><path class="cls-9" d="M218,166.1c3.31,1.66,5.33,3.84,5.33,6.24,0,5.17-9.35,9.35-20.87,9.35a39.05,39.05,0,0,1-13.21-2.11c3.82,1.91,9.37,3.12,15.54,3.12,11.53,0,20.87-4.19,20.87-9.36C225.64,170.42,222.66,167.82,218,166.1Z" transform="translate(-19 -21)"/><path class="cls-5" d="M171.46,165.15s.73,10.64,21.58,10.64,27.08-10.64,27.08-10.64Z" transform="translate(-19 -21)"/><path class="cls-5" d="M201.06,137.24a14.65,14.65,0,0,0-10.54-2.89,14.7,14.7,0,0,1-1.78,28.89,14.7,14.7,0,0,0,12.32-26Z" transform="translate(-19 -21)"/><rect class="cls-5" x="173.81" y="111.43" width="1.42" height="33.86"/><path class="cls-2" d="M287.67,107.27h0l0-.83L292.1,100l-4.45,5.86V106l-.16-6.61,3.85-6.71-3.86,5.54,0-13.7v0l-.25,10.8-3.51-4.39,3.5,5.32-.08,5.92-3.23-5.78,3.22,6.65-.05,3.29-.11,9.11v.68h.88l-.2-8.76Z" transform="translate(-19 -21)"/><path class="cls-2" d="M266.35,110.12h0l0-.83,4.45-6.47-4.45,5.85v.17l-.15-6.61L270,95.51l-3.85,5.55,0-13.7v0l-.25,10.8-3.51-4.39,3.5,5.32-.08,5.91-3.23-5.77,3.22,6.64,0,3.29-.12,9.11V119l.88,0-.2-8.75Z" transform="translate(-19 -21)"/><path class="cls-2" d="M276.77,101.11h0l0-.83,4.45-6.47-4.45,5.85v.18l-.16-6.62,3.85-6.71-3.86,5.55,0-13.7v0l-.25,10.8-3.51-4.39,3.49,5.32L276.27,96,273,90.22l3.22,6.64-.05,3.29-.11,9.11V110l.88,0-.2-8.75Z" transform="translate(-19 -21)"/><circle class="cls-10" cx="81.62" cy="231.88" r="5.69"/><polygon class="cls-11" points="385.2 336.91 379.94 338.87 369.88 319.48 377.66 316.59 385.2 336.91"/><path class="cls-12" d="M407.44,362.52l-17,6.31-.08-.21a7,7,0,0,1,4.16-9.07h0l10.37-3.86Z" transform="translate(-19 -21)"/><polygon class="cls-11" points="333.38 342.38 327.77 342.38 325.09 320.71 333.38 320.71 333.38 342.38"/><path class="cls-12" d="M353.36,368.83H335.25v-.23a7,7,0,0,1,7.05-7.05h11.06Z" transform="translate(-19 -21)"/><path class="cls-12" d="M378.1,213.05l-1.83-3.67-15.58,7.79.46,3.21-3,3.9s-5,2.75-4.12,11.92l.91,8.71,1.15,11.23-8,27.73L344,320.54l-3,29.57,14.43-.69,13.29-48.13,23.36,51.8,16-4.13-22-51.34-2.75-21.54s1.83-11.46-6.87-19.25l1.37-4.13v-5.08l4.58-24.26Z" transform="translate(-19 -21)"/><rect class="cls-4" x="355.17" y="283.14" width="37.15" height="0.54" transform="translate(-19.45 545.24) rotate(-74.26)"/><rect class="cls-5" x="336.19" y="235.14" width="22.45" height="2.29"/><path class="cls-5" d="M355.19,259.81c.51,0,.92-1,.92-2.3s-.41-2.29-.92-2.29-.91,1-.91,2.29S354.69,259.81,355.19,259.81Z" transform="translate(-19 -21)"/><path class="cls-11" d="M371.17,207.12a12.21,12.21,0,1,0-16.57-4.86A12.22,12.22,0,0,0,371.17,207.12Z" transform="translate(-19 -21)"/><path class="cls-12" d="M384,192a10.81,10.81,0,1,0-10.8-10.81A10.81,10.81,0,0,0,384,192Z" transform="translate(-19 -21)"/><path class="cls-12" d="M397.72,180.07A10.82,10.82,0,0,1,393.64,192a10.64,10.64,0,0,1-4.06,1.78,10.84,10.84,0,0,1-4.43,0,10.79,10.79,0,0,1-8.51-9.24,10.81,10.81,0,0,0,21.08-4.43Z" transform="translate(-19 -21)"/><path class="cls-12" d="M355,193a12.78,12.78,0,1,0,7.62-10.29c-2.13-1.72-4.77-1.19-6.92.63-2.44,2.05-3.16,3.46-5,6.84C352.54,190.45,353.18,192.75,355,193Z" transform="translate(-19 -21)"/><path class="cls-8" d="M399.92,229.75c-.13,3.62-.4,10.75-.4,11.11s-5.4,11.58-7.74,16.39h0l-.44.92a2.17,2.17,0,0,1-2,1.23l-10.19-.19a2.15,2.15,0,0,1-1.5-.63,2.12,2.12,0,0,1-.64-1.49l-1.14-44.88a1.09,1.09,0,0,1,.08-.43,1,1,0,0,1,.24-.37,1,1,0,0,1,.36-.25,1.26,1.26,0,0,1,.43-.08h13.15a2.94,2.94,0,0,1,2.66,1.67l6.31,13.06A8.27,8.27,0,0,1,399.92,229.75Z" transform="translate(-19 -21)"/><path class="cls-10" d="M376.83,254a28.89,28.89,0,0,1-7-5.89,32.28,32.28,0,0,1-8.06-18.79c-.52-6,.67-10.4,3.52-13.18a11.57,11.57,0,0,1,8.77-3l.22,0,3.34,2.83-1,1.12-3-2.53a10.19,10.19,0,0,0-7.38,2.61c-2.51,2.46-3.55,6.5-3.07,12a30.9,30.9,0,0,0,7.65,17.91,28.5,28.5,0,0,0,6.62,5.62Z" transform="translate(-19 -21)"/><rect class="cls-5" x="377.85" y="238.79" width="18.19" height="0.49" transform="translate(-59.19 61.77) rotate(-11.61)"/><rect class="cls-5" x="384.15" y="211.06" width="0.49" height="28.39" transform="translate(-27.91 -5.05) rotate(-2.35)"/><path class="cls-5" d="M399.92,229.75c-.13,3.62-.4,10.75-.4,11.11s-5.4,11.58-7.74,16.39L396.13,232a5.5,5.5,0,0,1,1.23-2.64,5.57,5.57,0,0,1,2.39-1.66A8.4,8.4,0,0,1,399.92,229.75Z" transform="translate(-19 -21)"/><path class="cls-11" d="M373.2,282.7A4.28,4.28,0,0,0,374,281a4.37,4.37,0,0,0,0-1.87,4.42,4.42,0,0,0-.78-1.69,4.32,4.32,0,0,0-1.42-1.2l.88-9.78-5.81-2-1.05,13.83a4.32,4.32,0,0,0,7.37,4.38Z" transform="translate(-19 -21)"/><path class="cls-2" d="M374,273.23l-10.29-.37.43-49.68a6.7,6.7,0,0,1,4.54-6.38,6,6,0,0,1,3.83,0,6.8,6.8,0,0,1,3.45,2.66,6.73,6.73,0,0,1,1.09,4.21Z" transform="translate(-19 -21)"/><path class="cls-2" d="M464.29,369H259.15a.53.53,0,0,1-.38-.16.53.53,0,0,1,0-.76.53.53,0,0,1,.38-.16H464.29a.53.53,0,0,1,.38.16.53.53,0,0,1,0,.76A.53.53,0,0,1,464.29,369Z" transform="translate(-19 -21)"/></svg>