<?xml version="1.0" encoding="UTF-8" standalone="no"?>
<!-- Created with Inkscape (http://www.inkscape.org/) -->

<svg
   width="6.8248291mm"
   height="6.8688011mm"
   viewBox="0 0 6.8248291 6.8688011"
   version="1.1"
   id="svg2024"
   inkscape:version="1.2.1 (8a69933317, 2022-10-28, custom)"
   sodipodi:docname="Share.svg"
   xmlns:inkscape="http://www.inkscape.org/namespaces/inkscape"
   xmlns:sodipodi="http://sodipodi.sourceforge.net/DTD/sodipodi-0.dtd"
   xmlns="http://www.w3.org/2000/svg"
   xmlns:svg="http://www.w3.org/2000/svg">
  <sodipodi:namedview
     id="namedview2026"
     pagecolor="#ffffff"
     bordercolor="#666666"
     borderopacity="1.0"
     inkscape:showpageshadow="2"
     inkscape:pageopacity="0.0"
     inkscape:pagecheckerboard="0"
     inkscape:deskcolor="#d1d1d1"
     inkscape:document-units="mm"
     showgrid="false"
     showguides="false"
     inkscape:zoom="10.844844"
     inkscape:cx="20.747187"
     inkscape:cy="17.012694"
     inkscape:window-width="1366"
     inkscape:window-height="704"
     inkscape:window-x="0"
     inkscape:window-y="27"
     inkscape:window-maximized="1"
     inkscape:current-layer="g837" />
  <defs
     id="defs2021" />
  <g
     inkscape:label="Layer 1"
     inkscape:groupmode="layer"
     id="layer1"
     transform="translate(-0.05433743)">
    <g
       id="g837"
       transform="matrix(0.35277777,0,0,-0.35277777,1.1528169,6.4186304)">
      <path
         d="m 0,0 h -1.935 v 9.673 c -0.002,0.661 0.151,1.313 0.446,1.904 0.401,0.885 1.048,1.635 1.864,2.162 0.815,0.526 1.766,0.807 2.737,0.808 h 5.067 v 3.265 H 9.751 L 15.827,11.737 9.73,5.641 H 8.179 V 8.906 H 4.884 C 4.194,8.904 3.524,8.678 2.975,8.261 2.426,7.844 2.028,7.26 1.841,6.596 Z M 3.112,13.359 C 2.368,13.358 1.639,13.143 1.015,12.738 0.39,12.334 -0.105,11.758 -0.411,11.079 l -0.01,-0.022 C -0.637,10.627 -0.749,10.153 -0.748,9.673 V 1.739 l 1.445,5.177 c 0.257,0.913 0.805,1.717 1.561,2.29 0.755,0.574 1.677,0.885 2.626,0.888 H 9.367 V 6.957 l 4.78,4.78 -4.78,4.781 v -3.159 z"
         style="fill:#ffffff;fill-opacity:1;fill-rule:nonzero;stroke:none"
         id="path839" />
    </g>
  </g>
</svg>
