<?xml version="1.0" encoding="UTF-8" standalone="no"?>
<!-- Created with Inkscape (http://www.inkscape.org/) -->

<svg
   width="6.8248291mm"
   height="6.8688011mm"
   viewBox="0 0 6.8248291 6.8688011"
   version="1.1"
   id="svg2024"
   inkscape:version="1.2.1 (8a69933317, 2022-10-28, custom)"
   sodipodi:docname="twitter.svg"
   xmlns:inkscape="http://www.inkscape.org/namespaces/inkscape"
   xmlns:sodipodi="http://sodipodi.sourceforge.net/DTD/sodipodi-0.dtd"
   xmlns="http://www.w3.org/2000/svg"
   xmlns:svg="http://www.w3.org/2000/svg">
  <sodipodi:namedview
     id="namedview2026"
     pagecolor="#ffffff"
     bordercolor="#666666"
     borderopacity="1.0"
     inkscape:showpageshadow="2"
     inkscape:pageopacity="0.0"
     inkscape:pagecheckerboard="0"
     inkscape:deskcolor="#d1d1d1"
     inkscape:document-units="mm"
     showgrid="false"
     showguides="false"
     inkscape:zoom="10.844844"
     inkscape:cx="20.747187"
     inkscape:cy="17.012694"
     inkscape:window-width="1366"
     inkscape:window-height="704"
     inkscape:window-x="0"
     inkscape:window-y="27"
     inkscape:window-maximized="1"
     inkscape:current-layer="g837" />
  <defs
     id="defs2021" />
  <g
     inkscape:label="Layer 1"
     inkscape:groupmode="layer"
     id="layer1"
     transform="translate(-0.05433743)">
    <g
       id="g837"
       transform="matrix(0.35277777,0,0,-0.35277777,1.1528169,6.4186304)">
      <g
         id="g1011"
         transform="matrix(0.73533278,0,0,0.74246175,6.5369076,18.157756)">
        <path
           d="m 0,0 c -7.183,0 -13.028,-5.843 -13.028,-13.027 0,-7.184 5.845,-13.028 13.028,-13.028 7.184,0 13.028,5.844 13.028,13.028 C 13.028,-5.843 7.184,0 0,0 m 0,-25.187 c -6.705,0 -12.159,5.455 -12.159,12.16 0,6.704 5.454,12.159 12.159,12.159 6.705,0 12.159,-5.455 12.159,-12.159 0,-6.705 -5.454,-12.16 -12.159,-12.16"
           style="fill:#ffffff;fill-opacity:1;fill-rule:nonzero;stroke:none"
           id="path1013" />
      </g>
      <g
         id="g1015"
         transform="matrix(0.73533278,0,0,0.74246175,11.791228,11.473818)">
        <path
           d="M 0,0 C 0.09,0.167 0.164,0.342 0.222,0.522 0.248,0.606 0.249,0.696 0.223,0.78 0.198,0.865 0.147,0.939 0.078,0.994 0.01,1.048 -0.074,1.082 -0.162,1.087 -0.25,1.094 -0.337,1.073 -0.413,1.029 -0.829,0.781 -1.28,0.597 -1.75,0.482 -2.321,0.997 -3.063,1.283 -3.832,1.284 -4.25,1.284 -4.663,1.199 -5.048,1.035 -5.432,0.871 -5.779,0.631 -6.068,0.33 c -0.29,-0.302 -0.515,-0.659 -0.663,-1.049 -0.149,-0.391 -0.217,-0.808 -0.2,-1.225 -1.827,0.23 -3.496,1.154 -4.659,2.582 -0.045,0.054 -0.102,0.096 -0.167,0.124 -0.064,0.027 -0.134,0.038 -0.204,0.033 -0.07,-0.005 -0.138,-0.028 -0.197,-0.065 -0.059,-0.038 -0.109,-0.088 -0.144,-0.149 -0.267,-0.457 -0.411,-0.975 -0.421,-1.504 -0.009,-0.53 0.117,-1.053 0.367,-1.519 -0.061,-0.011 -0.12,-0.032 -0.174,-0.063 -0.066,-0.042 -0.119,-0.1 -0.157,-0.168 -0.038,-0.069 -0.057,-0.145 -0.057,-0.223 0,-0.923 0.41,-1.77 1.072,-2.345 l -0.029,-0.028 c -0.05,-0.057 -0.084,-0.125 -0.1,-0.199 -0.015,-0.074 -0.011,-0.15 0.012,-0.222 0.138,-0.43 0.369,-0.825 0.675,-1.157 0.306,-0.332 0.682,-0.593 1.1,-0.764 -0.859,-0.419 -1.819,-0.582 -2.768,-0.471 -0.097,0.01 -0.195,-0.013 -0.279,-0.064 -0.083,-0.052 -0.147,-0.13 -0.181,-0.222 -0.032,-0.092 -0.033,-0.193 -10e-4,-0.286 0.032,-0.093 0.094,-0.173 0.176,-0.225 1.29,-0.829 2.79,-1.268 4.322,-1.267 5.021,0 8.022,4.078 8.022,8.021 v 0.134 c 0.486,0.38 0.909,0.835 1.252,1.348 0.052,0.078 0.077,0.17 0.073,0.264 -0.005,0.093 -0.04,0.182 -0.099,0.254 C 0.444,-0.053 0.363,-0.001 0.272,0.021 0.182,0.043 0.086,0.036 0,0 m -1.418,-1.426 c -0.059,-0.042 -0.106,-0.099 -0.138,-0.164 -0.031,-0.066 -0.046,-0.138 -0.043,-0.21 0.005,-0.108 0.008,-0.217 0.008,-0.324 0,-3.516 -2.676,-7.154 -7.153,-7.154 -0.799,0 -1.592,0.134 -2.346,0.397 0.903,0.173 1.752,0.56 2.474,1.129 0.071,0.055 0.122,0.131 0.147,0.217 0.026,0.086 0.025,0.178 -0.004,0.263 -0.028,0.085 -0.082,0.158 -0.154,0.211 -0.073,0.054 -0.16,0.083 -0.249,0.085 -0.35,0.007 -0.694,0.096 -1.004,0.26 -0.309,0.164 -0.576,0.398 -0.779,0.684 0.206,0.014 0.408,0.048 0.603,0.101 0.095,0.025 0.179,0.082 0.237,0.161 0.058,0.079 0.088,0.175 0.085,0.273 -0.004,0.098 -0.04,0.192 -0.104,0.267 -0.063,0.074 -0.151,0.125 -0.247,0.144 -0.395,0.081 -0.762,0.267 -1.06,0.54 -0.297,0.272 -0.516,0.621 -0.631,1.007 0.216,-0.054 0.438,-0.086 0.66,-0.093 0.191,0.001 0.368,0.118 0.428,0.301 0.059,0.184 -0.011,0.387 -0.173,0.494 -0.382,0.254 -0.677,0.621 -0.843,1.049 -0.166,0.429 -0.196,0.898 -0.086,1.344 1.412,-1.449 3.317,-2.311 5.337,-2.415 0.143,-10e-4 0.268,0.05 0.355,0.155 0.087,0.105 0.12,0.244 0.089,0.377 -0.111,0.479 -0.061,0.981 0.142,1.428 0.202,0.447 0.547,0.816 0.98,1.047 0.433,0.232 0.931,0.315 1.416,0.235 0.485,-0.079 0.93,-0.316 1.266,-0.674 0.051,-0.054 0.114,-0.094 0.184,-0.116 0.071,-0.023 0.146,-0.027 0.218,-0.013 0.134,0.027 0.266,0.058 0.397,0.093 -0.059,-0.044 -0.12,-0.085 -0.183,-0.122 -0.085,-0.052 -0.149,-0.131 -0.182,-0.223 -0.034,-0.094 -0.035,-0.195 -0.002,-0.288 0.031,-0.094 0.094,-0.174 0.178,-0.227 0.083,-0.053 0.182,-0.076 0.28,-0.065 l 0.148,0.019 C -1.249,-1.3 -1.332,-1.365 -1.418,-1.426"
           style="fill:#ffffff;fill-opacity:1;fill-rule:nonzero;stroke:none"
           id="path1017" />
      </g>
    </g>
  </g>
</svg>
